<svg xmlns="http://www.w3.org/2000/svg" width="21.658" height="25.102" viewBox="0 0 21.658 25.102">
  <path id="_679ab2c29f83cef52f36b4d7acb426aa" data-name="679ab2c29f83cef52f36b4d7acb426aa" d="M527.569,474.62a8.661,8.661,0,0,0-1.7-1.944,5.448,5.448,0,0,0-2.125-1.13l-.117.534a4.953,4.953,0,0,1,1.931,1.03,8.133,8.133,0,0,1,1.6,1.824,8.62,8.62,0,0,1,1.47,4.455h.51a7.8,7.8,0,0,0-.421-2.408A10.336,10.336,0,0,0,527.569,474.62Zm-16.362.316a8.12,8.12,0,0,1,1.6-1.824,4.958,4.958,0,0,1,1.931-1.03l-.117-.534a5.453,5.453,0,0,0-2.125,1.13,8.653,8.653,0,0,0-1.7,1.944,10.307,10.307,0,0,0-1.142,2.362,7.81,7.81,0,0,0-.421,2.408h.51A8.621,8.621,0,0,1,511.207,474.935Zm17.482-.809a9.21,9.21,0,0,0-2.266-2.374l-.289.453a8.681,8.681,0,0,1,2.136,2.237,8.582,8.582,0,0,1,1.236,3.129l.5-.109A9.148,9.148,0,0,0,528.689,474.126ZM512.223,472.2l-.289-.453a8.968,8.968,0,0,0-3.585,5.71l.5.108a8.582,8.582,0,0,1,1.237-3.129A8.675,8.675,0,0,1,512.223,472.2Zm5.724-.215.094-.014h.009a7.87,7.87,0,0,1,2.466.033v-.59a1.483,1.483,0,0,0-.391-1.016,1.282,1.282,0,0,0-.945-.421,1.391,1.391,0,0,0-1.336,1.437v.59l.1-.016Zm-4.813,3.506a8.578,8.578,0,0,0-1.325,2.473,8.98,8.98,0,0,0-.48,2.912l0,6.243h15.7V480.88a8.849,8.849,0,0,0-1.34-4.718,8,8,0,0,0-3.454-3.058,7.4,7.4,0,0,0-1.51-.5h0a7.394,7.394,0,0,0-3.083,0l-.023,0a7.465,7.465,0,0,0-2.48,1.037A8.055,8.055,0,0,0,513.135,475.5Zm3.747,17.116a2.3,2.3,0,1,0,4.6,0v-.686h-4.6Zm11.187-4.693a1.741,1.741,0,0,0-.785-.247H511.061a1.569,1.569,0,0,0-1.065.451,1.969,1.969,0,0,0-.453,1.4,1.793,1.793,0,0,0,1.723,1.852h15.826a1.793,1.793,0,0,0,1.723-1.852A1.74,1.74,0,0,0,528.069,487.919Z" transform="translate(-508.35 -469.98)" fill="#f9a30e"/>
</svg>
