<svg xmlns="http://www.w3.org/2000/svg" width="22.618" height="26.215" viewBox="0 0 22.618 26.215">
  <path id="_679ab2c29f83cef52f36b4d7acb426aa" data-name="679ab2c29f83cef52f36b4d7acb426aa" d="M528.422,474.825a9.045,9.045,0,0,0-1.779-2.03,5.691,5.691,0,0,0-2.22-1.18l-.122.558a5.174,5.174,0,0,1,2.016,1.076,8.5,8.5,0,0,1,1.669,1.905,9.005,9.005,0,0,1,1.535,4.652h.533a8.155,8.155,0,0,0-.44-2.515A10.792,10.792,0,0,0,528.422,474.825Zm-17.088.33A8.472,8.472,0,0,1,513,473.25a5.178,5.178,0,0,1,2.016-1.076l-.122-.558a5.693,5.693,0,0,0-2.22,1.18,9.035,9.035,0,0,0-1.779,2.03,10.768,10.768,0,0,0-1.193,2.467,8.155,8.155,0,0,0-.44,2.515h.533A9,9,0,0,1,511.334,475.155Zm18.257-.845a9.612,9.612,0,0,0-2.366-2.48l-.3.473a9.057,9.057,0,0,1,2.231,2.336,8.961,8.961,0,0,1,1.291,3.267l.523-.113A9.553,9.553,0,0,0,529.591,474.31ZM512.4,472.3l-.3-.473a9.365,9.365,0,0,0-3.744,5.963l.523.113a8.962,8.962,0,0,1,1.291-3.267A9.056,9.056,0,0,1,512.4,472.3Zm5.978-.225.1-.015h.009a8.21,8.21,0,0,1,2.575.034v-.616a1.549,1.549,0,0,0-.409-1.061,1.339,1.339,0,0,0-.987-.439,1.452,1.452,0,0,0-1.4,1.5v.616l.1-.017Zm-5.026,3.661a8.957,8.957,0,0,0-1.384,2.582,9.374,9.374,0,0,0-.5,3.041l0,6.52h16.4v-6.52a9.239,9.239,0,0,0-1.4-4.927,8.361,8.361,0,0,0-3.607-3.193,7.739,7.739,0,0,0-1.577-.522h0a7.717,7.717,0,0,0-3.22,0l-.024.005a7.8,7.8,0,0,0-2.59,1.083A8.413,8.413,0,0,0,513.347,475.74Zm3.913,17.876a2.406,2.406,0,1,0,4.8,0V492.9h-4.8Zm11.683-4.9a1.822,1.822,0,0,0-.82-.258H511.181a1.637,1.637,0,0,0-1.113.47,2.055,2.055,0,0,0-.473,1.464,1.873,1.873,0,0,0,1.8,1.935h16.528a1.873,1.873,0,0,0,1.8-1.935A1.817,1.817,0,0,0,528.943,488.714Z" transform="translate(-508.35 -469.98)" fill="#fff"/>
</svg>
