<svg xmlns="http://www.w3.org/2000/svg" xmlns:xlink="http://www.w3.org/1999/xlink" width="60" height="60" viewBox="0 0 60 60">
  <defs>
    <linearGradient id="linear-gradient" y1="0.5" x2="1" y2="0.5" gradientUnits="objectBoundingBox">
      <stop offset="0" stop-color="#f9a30e"/>
      <stop offset="1" stop-color="#ec692e"/>
    </linearGradient>
    <filter id="Button" x="0" y="0" width="60" height="60" filterUnits="userSpaceOnUse">
      <feOffset dy="1" input="SourceAlpha"/>
      <feGaussianBlur stdDeviation="2" result="blur"/>
      <feFlood flood-color="#101828" flood-opacity="0.059"/>
      <feComposite operator="in" in2="blur"/>
      <feComposite in="SourceGraphic"/>
    </filter>
  </defs>
  <g id="Button-2" data-name="Button" transform="translate(6 5)">
    <g transform="matrix(1, 0, 0, 1, -6, -5)" filter="url(#Button)">
      <g id="Button-3" data-name="Button" transform="translate(6 5)" stroke="rgba(255,255,255,0.8)" stroke-width="1" fill="url(#linear-gradient)">
        <rect width="48" height="48" rx="24" stroke="none"/>
        <rect x="0.5" y="0.5" width="47" height="47" rx="23.5" fill="none"/>
      </g>
    </g>
    <g id="icon_bold_send" data-name="icon/bold/send" transform="translate(14 14)">
      <rect id="icon_bold_send-2" data-name="icon/bold/send" width="20" height="20" fill="none"/>
      <g id="vuesax_bold_send" data-name="vuesax/bold/send">
        <g id="send">
          <g id="Vector" transform="translate(2.541 2.501)" fill="url(#linear-gradient)">
            <path d="M 1.965149879455566 14.49779033660889 C 1.3574298620224 14.49780082702637 0.9365998506546021 14.31529998779297 0.7143198251724243 13.9553804397583 C 0.2569498121738434 13.21476078033447 0.5332698225975037 11.71458053588867 1.472449779510498 9.839489936828613 L 2.197089910507202 8.398540496826172 L 2.198229789733887 8.396260261535645 L 2.199349880218506 8.393980026245117 C 2.476889848709106 7.827790260314941 2.476889848709106 7.178340435028076 2.199349880218506 6.612150192260742 L 1.472599864006042 5.158620357513428 C 0.5341498255729675 3.28497052192688 0.258659839630127 1.785240411758423 0.7166098356246948 1.043670415878296 C 0.9393898248672485 0.6829203963279724 1.360689878463745 0.5000104308128357 1.968799829483032 0.5000104308128357 C 2.788179874420166 0.5000104308128357 3.891609907150269 0.8357604146003723 5.159800052642822 1.470960378646851 L 12.2934398651123 5.037780284881592 C 13.64303016662598 5.712570190429688 14.41704940795898 6.609620571136475 14.41704940795898 7.498910427093506 C 14.41704940795898 8.388190269470215 13.64303016662598 9.285240173339844 12.2934398651123 9.960030555725098 L 5.160109996795654 13.52669048309326 C 3.889529943466187 14.16198062896729 2.784719944000244 14.49778079986572 1.965149879455566 14.49779033660889 Z M 5.325379848480225 6.373890399932861 C 4.705049991607666 6.373890399932861 4.200379848480225 6.878560543060303 4.200379848480225 7.498890399932861 C 4.200379848480225 8.119220733642578 4.705049991607666 8.62389087677002 5.325379848480225 8.62389087677002 L 9.825379371643066 8.62389087677002 C 10.44571018218994 8.62389087677002 10.95037937164307 8.119220733642578 10.95037937164307 7.498890399932861 C 10.95037937164307 6.878560543060303 10.44571018218994 6.373890399932861 9.825379371643066 6.373890399932861 L 5.325379848480225 6.373890399932861 Z" stroke="none"/>
            <path d="M 1.965139865875244 13.99779033660889 C 2.482809782028198 13.99778079986572 3.418529748916626 13.83845996856689 4.936509609222412 13.07947063446045 L 12.06983947753906 9.512810707092285 C 13.24376964569092 8.925850868225098 13.91704940795898 8.191810607910156 13.91704940795898 7.498910427093506 C 13.91704940795898 6.806000232696533 13.24376964569092 6.07196044921875 12.06983947753906 5.485000610351562 L 4.935889720916748 1.918020367622375 C 3.421029806137085 1.15928041934967 2.486239910125732 1.000010371208191 1.968799829483032 1.000010371208191 C 1.33122980594635 1.000010371208191 1.188819885253906 1.230610370635986 1.142029881477356 1.306390404701233 C 0.8644998073577881 1.75579047203064 0.9230098128318787 2.944860458374023 1.919819831848145 4.935020446777344 L 2.648309707641602 6.392080307006836 C 2.994409799575806 7.098130226135254 2.994409799575806 7.908000469207764 2.648309707641602 8.61405086517334 L 2.643779754638672 8.623180389404297 L 1.919509768486023 10.06341075897217 C 0.9219897985458374 12.05497074127197 0.8626598119735718 13.24398994445801 1.139739871025085 13.69266033172607 C 1.186349868774414 13.7681303024292 1.328179836273193 13.99780082702637 1.965139865875244 13.99779033660889 M 5.325379848480225 5.873890399932861 L 9.825379371643066 5.873890399932861 C 10.72140979766846 5.873890399932861 11.45037937164307 6.602860450744629 11.45037937164307 7.498890399932861 C 11.45037937164307 8.394920349121094 10.72140979766846 9.12389087677002 9.825379371643066 9.12389087677002 L 5.325379848480225 9.12389087677002 C 4.429349899291992 9.12389087677002 3.700379848480225 8.394920349121094 3.700379848480225 7.498890399932861 C 3.700379848480225 6.602860450744629 4.429349899291992 5.873890399932861 5.325379848480225 5.873890399932861 M 1.965151786804199 14.9977912902832 C -0.1850709021091461 14.99781227111816 -0.6795418262481689 13.01950931549072 1.025389790534973 9.615570068359375 L 1.750389814376831 8.173900604248047 C 1.958719849586487 7.748900413513184 1.958719849586487 7.257230281829834 1.750389814376831 6.832230567932129 L 1.025389790534973 5.382230281829834 C -1.374610185623169 0.5905604958534241 0.5920594334602356 -1.376099348068237 5.383719921112061 1.023900389671326 L 12.51704978942871 4.590570449829102 C 15.71704959869385 6.19057035446167 15.71704959869385 8.80724048614502 12.51704978942871 10.40724086761475 L 12.51704978942871 10.40723037719727 L 5.383719921112061 13.97390079498291 C 3.993583202362061 14.66896915435791 2.841756820678711 14.99778270721436 1.965151786804199 14.9977912902832 Z M 5.325379848480225 6.873890399932861 C 4.983709812164307 6.873890399932861 4.700379848480225 7.157220363616943 4.700379848480225 7.498890399932861 C 4.700379848480225 7.840560436248779 4.983709812164307 8.12389087677002 5.325379848480225 8.12389087677002 L 9.825379371643066 8.12389087677002 C 10.16704940795898 8.12389087677002 10.45037937164307 7.840560436248779 10.45037937164307 7.498890399932861 C 10.45037937164307 7.157220363616943 10.16704940795898 6.873890399932861 9.825379371643066 6.873890399932861 L 5.325379848480225 6.873890399932861 Z" stroke="none" fill="#fff"/>
          </g>
          <path id="Vector-2" data-name="Vector" d="M0,0H20V20H0Z" transform="translate(20 20) rotate(180)" fill="none" opacity="0"/>
        </g>
      </g>
    </g>
  </g>
</svg>
