<svg id="f49804fae3bc51d7b2d0f6b66f8015ce" xmlns="http://www.w3.org/2000/svg" width="14.902" height="14.902" viewBox="0 0 14.902 14.902">
  <path id="路径_1514" data-name="路径 1514" d="M0,0H14.9V14.9H0Z" fill="none"/>
  <path id="路径_1515" data-name="路径 1515" d="M8.588,3.726A1.242,1.242,0,0,0,9.83,2.484a1.182,1.182,0,0,0-.18-.64L8.588,0,7.527,1.844a1.182,1.182,0,0,0-.18.64A1.246,1.246,0,0,0,8.588,3.726Zm3.726,1.863h-3.1V4.347H7.967V5.588h-3.1A1.86,1.86,0,0,0,3,7.451V13.04a.623.623,0,0,0,.621.621h9.935a.623.623,0,0,0,.621-.621V7.451A1.86,1.86,0,0,0,12.314,5.588Zm.621,6.83H4.242V10.556a2.138,2.138,0,0,0,1.49-.627l.677-.664.664.664a2.2,2.2,0,0,0,3.036,0l.671-.664.664.664a2.138,2.138,0,0,0,1.49.627v1.863Zm0-2.794a1.185,1.185,0,0,1-.838-.354L10.774,7.948,9.445,9.271a1.245,1.245,0,0,1-1.72,0L6.4,7.948,5.074,9.271a1.186,1.186,0,0,1-.832.354V7.451a.623.623,0,0,1,.621-.621h7.451a.623.623,0,0,1,.621.621Z" transform="translate(-1.137)" fill="#fff"/>
</svg>
