<svg xmlns="http://www.w3.org/2000/svg" xmlns:xlink="http://www.w3.org/1999/xlink" width="23.046" height="23.046" viewBox="0 0 23.046 23.046">
  <defs>
    <linearGradient id="linear-gradient" x1="0.5" x2="0.5" y2="1" gradientUnits="objectBoundingBox">
      <stop offset="0" stop-color="#f9a30e"/>
      <stop offset="1" stop-color="#ec692e"/>
    </linearGradient>
  </defs>
  <path id="a5e8c9ab42874428d153a280746be9d8" d="M24.418,12.895A11.523,11.523,0,1,0,35.941,24.418,11.536,11.536,0,0,0,24.418,12.895Zm3.62,15.043a3.419,3.419,0,0,1-1.4,1.172,4.388,4.388,0,0,1-1.374.36v1.549a.427.427,0,0,1-.427.427H23.557a.427.427,0,0,1-.427-.427V29.336a4.024,4.024,0,0,1-.715-.25A3.18,3.18,0,0,1,20.9,27.829a3.5,3.5,0,0,1-.587-1.881.427.427,0,0,1,.4-.444l1.148-.078a.427.427,0,0,1,.454.376,1.963,1.963,0,0,0,.313.919,1.541,1.541,0,0,0,.756.588,3.254,3.254,0,0,0,2.32.075,1.515,1.515,0,0,0,.625-.438A.915.915,0,0,0,26.5,26.4a.739.739,0,0,0-.171-.494,1.485,1.485,0,0,0-.657-.414c-.21-.069-.755-.224-1.585-.425a8.673,8.673,0,0,1-1.878-.614,2.9,2.9,0,0,1-1.151-1.013,2.568,2.568,0,0,1-.377-1.372,2.9,2.9,0,0,1,.457-1.558,2.972,2.972,0,0,1,1.344-1.081,3.529,3.529,0,0,1,.652-.217V17.788a.427.427,0,0,1,.427-.427h1.278a.427.427,0,0,1,.427.427v1.349a5.166,5.166,0,0,1,1.063.29,3.11,3.11,0,0,1,1.4,1.156,3.2,3.2,0,0,1,.539,1.673.428.428,0,0,1-.4.448l-1.175.079a.426.426,0,0,1-.452-.369,1.492,1.492,0,0,0-.493-1.028,2.019,2.019,0,0,0-1.353-.378,2.309,2.309,0,0,0-1.358.329.773.773,0,0,0-.329.653.625.625,0,0,0,.2.49,4.524,4.524,0,0,0,1.657.554,14.846,14.846,0,0,1,2.142.625,2.947,2.947,0,0,1,1.372,1.112,2.674,2.674,0,0,1,.452,1.524A2.97,2.97,0,0,1,28.038,27.938Z" transform="translate(-12.895 -12.895)" fill="url(#linear-gradient)"/>
</svg>
