<svg id="Capa_1" data-name="Capa 1" xmlns="http://www.w3.org/2000/svg" width="40.125" height="41.945" viewBox="0 0 40.125 41.945">
  <path id="路径_1499" data-name="路径 1499" d="M27.628,23.385,39.28,16.663l.845-13.918H32.972V0H7.153V2.745H0L.845,16.663,12.5,23.385a19.95,19.95,0,0,0,3.237,3.275l2.181,1.732L17.9,31.859a12.831,12.831,0,0,0-9.422,7.183H5.813v2.9h28.5v-2.9H31.628a12.813,12.813,0,0,0-9.422-7.183L22.2,28.392l2.181-1.732a19.95,19.95,0,0,0,3.237-3.275ZM32.972,7.137V6.677h2.975l-.465,7.636L31.3,16.724a28.051,28.051,0,0,0,1.67-9.591ZM4.642,14.313,4.177,6.677H7.153v.461a28.051,28.051,0,0,0,1.67,9.591L4.642,14.317Zm15.423,1.271-3.64,2.661L17.83,13.96l-3.655-2.638,4.511.012,1.382-4.292,1.382,4.292,4.511-.012L22.3,13.96l1.405,4.285-3.64-2.661Z" fill="#fff"/>
</svg>
