<svg xmlns="http://www.w3.org/2000/svg" width="55.984" height="55.998" viewBox="0 0 55.984 55.998">
  <g id="_4a64b9b73859db5778589ecf4b8cd43b" data-name="4a64b9b73859db5778589ecf4b8cd43b" transform="translate(-2.005 -2.07)">
    <path id="路径_1193" data-name="路径 1193" d="M30,58.068a27.991,27.991,0,1,1,19.8-8.189A27.926,27.926,0,0,1,30,58.068ZM30,6.551a23.526,23.526,0,1,0,16.635,6.891A23.367,23.367,0,0,0,30,6.551ZM48.216,48.3h0Z" transform="translate(0 0)" fill="#16bf01"/>
    <path id="路径_1194" data-name="路径 1194" d="M19.5,30.836a2.234,2.234,0,0,1-1.584-.656L8.413,20.674a2.24,2.24,0,0,1,3.168-3.168L19.5,25.428,34.151,10.78a2.24,2.24,0,1,1,3.168,3.168L21.087,30.18A2.234,2.234,0,0,1,19.5,30.836Z" transform="translate(7.134 9.99)" fill="#16bf01"/>
  </g>
</svg>
