<svg xmlns="http://www.w3.org/2000/svg" width="15.786" height="17" viewBox="0 0 15.786 17">
  <path id="d66393eb3b7ad78b19be55d558e5e95c" d="M16.571,2H4.429A1.214,1.214,0,0,0,3.214,3.214V4.429H2.607a.607.607,0,0,0,0,1.214H4.429a.607.607,0,1,1,0,1.214H3.214v7.286H2.607a.607.607,0,1,0,0,1.214H4.429a.607.607,0,0,1,0,1.214H3.214v1.214A1.214,1.214,0,0,0,4.429,19H16.571a1.214,1.214,0,0,0,1.214-1.214V3.214A1.214,1.214,0,0,0,16.571,2ZM10.5,5.036A2.429,2.429,0,1,1,8.071,7.464,2.429,2.429,0,0,1,10.5,5.036Zm3.643,10.321H6.857V14.143a3.643,3.643,0,1,1,7.286,0Z" transform="translate(-2 -2)" fill="#00003c"/>
</svg>
