<svg id="e4b382ee5cc8ae35670c58a2aa578acc" xmlns="http://www.w3.org/2000/svg" width="14" height="14" viewBox="0 0 14 14">
  <path id="路径_1214" data-name="路径 1214" d="M8,23.278a1.945,1.945,0,0,1,1.945-1.945h6.222a1.945,1.945,0,0,1,1.945,1.945V29.5a1.945,1.945,0,0,1-1.945,1.945H9.945A1.945,1.945,0,0,1,8,29.5Zm1.945-1.167a1.167,1.167,0,0,0-1.167,1.167V29.5a1.167,1.167,0,0,0,1.167,1.167h6.222A1.167,1.167,0,0,0,17.334,29.5V23.278a1.167,1.167,0,0,0-1.167-1.167Z" transform="translate(-8 -17.444)" fill="#fff" fill-rule="evenodd"/>
  <path id="路径_1215" data-name="路径 1215" d="M21.333,9.945A1.944,1.944,0,0,1,23.278,8H29.5a1.945,1.945,0,0,1,1.944,1.945v6.222A1.944,1.944,0,0,1,29.5,18.111h-.239a.389.389,0,0,1,0-.778H29.5a1.167,1.167,0,0,0,1.167-1.167V9.945A1.167,1.167,0,0,0,29.5,8.778H23.278a1.167,1.167,0,0,0-1.167,1.167v.239a.389.389,0,1,1-.778,0Z" transform="translate(-17.444 -8)" fill="#fff" fill-rule="evenodd"/>
</svg>
