<svg xmlns="http://www.w3.org/2000/svg" xmlns:xlink="http://www.w3.org/1999/xlink" width="50" height="51" viewBox="0 0 50 51">
  <defs>
    <linearGradient id="linear-gradient" x1="0.5" x2="0.5" y2="1" gradientUnits="objectBoundingBox">
      <stop offset="0" stop-color="#f9a30e"/>
      <stop offset="1" stop-color="#ec692e"/>
    </linearGradient>
  </defs>
  <g id="组_973" data-name="组 973" transform="translate(-319 -638)">
    <g id="组_22" data-name="组 22" transform="translate(-4 7)">
      <g id="矩形_50" data-name="矩形 50" transform="translate(323 631)" stroke="#fff" stroke-width="1" fill="url(#linear-gradient)">
        <rect width="50" height="51" rx="8" stroke="none"/>
        <rect x="0.5" y="0.5" width="49" height="50" rx="7.5" fill="none"/>
      </g>
    </g>
    <path id="support" d="M32.01,31.512a.8.8,0,0,1,.128,1.116,4.319,4.319,0,0,1-7.174,0,.8.8,0,0,1,1.243-1,2.766,2.766,0,0,0,4.7,0,.8.8,0,0,1,1.1-.12ZM28.543,29.36c-9.27-.367-9.278-13.622,0-14a7,7,0,0,1,0,14Zm5.4-7a5.4,5.4,0,1,0-5.4,5.4A5.4,5.4,0,0,0,33.947,22.362Zm1.084,7.381a.808.808,0,0,0-1.068,1.212c2.806,2.543,4.83,6.839,5.619,11.9H17.5c.8-5.061,2.814-9.357,5.619-11.9a.8.8,0,1,0-1.068-1.18c-3.244,2.941-5.532,7.971-6.257,13.773a.8.8,0,0,0,.8.9H40.5a.8.8,0,0,0,.8-.9c-.733-5.819-3.021-10.84-6.265-13.781Zm7.062-6.823A3.331,3.331,0,0,1,38.9,26.906h-.8a.8.8,0,0,1-.8-.8V21.454c-.478-11.629-17.057-11.629-17.535,0v4.655a.8.8,0,0,1-.8.8h-.8c-2.208-.04-3.411-1.9-3.188-3.985a3.188,3.188,0,0,1,3.34-3.188c2.168-11.454,18.245-11.462,20.421,0H38.9A3.188,3.188,0,0,1,42.093,22.92ZM18.182,25.311V21.326a1.594,1.594,0,0,0-1.594,1.594v.8A1.594,1.594,0,0,0,18.182,25.311ZM40.5,22.92A1.594,1.594,0,0,0,38.9,21.326v3.985A1.594,1.594,0,0,0,40.5,23.717Z" transform="translate(315.456 635.706)" fill="#fff"/>
  </g>
</svg>
