<svg xmlns="http://www.w3.org/2000/svg" xmlns:xlink="http://www.w3.org/1999/xlink" width="18.627" height="25" viewBox="0 0 18.627 25">
  <defs>
    <linearGradient id="linear-gradient" x1="0.5" y1="0.055" x2="0.5" y2="0.973" gradientUnits="objectBoundingBox">
      <stop offset="0" stop-color="#ff7b08"/>
      <stop offset="1" stop-color="#cf0606"/>
    </linearGradient>
  </defs>
  <path id="路径_1492" data-name="路径 1492" d="M17.211,20.979A9.743,9.743,0,0,1,12.6,25c3.48-2.855-1.58-6.126.611-7.808a1.167,1.167,0,0,0-1.339.848,4.22,4.22,0,0,0,.038,1.118,2.009,2.009,0,0,1-.5,1.46,1.494,1.494,0,0,1-1.441.446,1.194,1.194,0,0,1-.878-1.17,2.975,2.975,0,0,1,.552-1.2A3.618,3.618,0,0,0,7.9,13.558a4.856,4.856,0,0,1-.441,4.6C6.8,19.123,5.786,19.841,5.3,20.9a3.239,3.239,0,0,0,.935,3.9,8.146,8.146,0,0,1-3.995-2.9A7.428,7.428,0,0,1,.961,17.178c.109-1.448.646-2.842.748-4.291A3.757,3.757,0,0,0,0,9.144,2.042,2.042,0,0,1,2.518,10.55a9.386,9.386,0,0,1,.08,1.314A1.4,1.4,0,0,0,3.179,13,1.168,1.168,0,0,0,4.7,12.451a2.174,2.174,0,0,0,0-1.73c-.2-.559-.517-1.073-.723-1.63A4.5,4.5,0,0,1,4.253,5.4,30.476,30.476,0,0,1,6.228,2.851,3.046,3.046,0,0,0,6.777,0,4.787,4.787,0,0,1,9.518,1.029a2.688,2.688,0,0,1,.864,2.935A8.491,8.491,0,0,1,9.054,5.722a3.293,3.293,0,0,0-.716,2.434,2.245,2.245,0,0,0,1.625,1.856A1.723,1.723,0,0,0,12,8.82c.144-.7-.248-1.4-.226-2.119a1.976,1.976,0,0,1,2.263-1.774,1.1,1.1,0,0,0-.913,1.143,2.262,2.262,0,0,0,.695,1.414c.366.4.795.737,1.119,1.165a3.488,3.488,0,0,1,.439,3.262,4,4,0,0,1-.911,1.417.758.758,0,0,0,.445,1.289l.029,0A1.361,1.361,0,0,0,16,14.114c.274-.295.482-.647.769-.929a2.373,2.373,0,0,1,1.857-.655c-2.874,1.13.343,4.9-1.417,8.449Z" transform="translate(0 0)" fill="url(#linear-gradient)"/>
</svg>
