<svg id="c0d937fe829e1557e84136d9f4ff6490" xmlns="http://www.w3.org/2000/svg" width="42.563" height="42.563" viewBox="0 0 42.563 42.563">
  <path id="路径_1497" data-name="路径 1497" d="M26.868,13.3c5.32-.8,10.375-2.926,5.852-9.577C30.858,1.064,29,0,27.4,0c-2.66,0-4.522,2.926-6.118,5.852C19.686,2.926,17.823,0,15.163,0c-1.6,0-3.458,1.064-5.32,3.724C5.054,10.375,10.375,12.5,15.7,13.3H0v7.981H42.563V13.3ZM27.4,2.66c.266,0,1.33.266,3.192,2.66,1.33,1.862,1.6,2.926,1.33,3.458-.532.8-3.458,1.862-8.779,2.128a3.781,3.781,0,0,0-.532-1.6C24.208,5.586,26.07,2.66,27.4,2.66ZM10.641,8.779c-.266-.532,0-1.6,1.33-3.458,1.862-2.394,2.926-2.66,3.192-2.66,1.33,0,3.192,2.926,4.788,6.651a3.781,3.781,0,0,0-.532,1.6C14.1,10.641,11.173,9.577,10.641,8.779Zm7.981,9.843V13.3h5.32v5.32Z" fill="#fff"/>
  <path id="路径_1498" data-name="路径 1498" d="M22.282,24.961h-5.32V9H1V27.621H38.243V9H22.282Z" transform="translate(1.66 14.942)" fill="#fff"/>
</svg>
