<svg xmlns="http://www.w3.org/2000/svg" width="20.578" height="20.578" viewBox="0 0 20.578 20.578">
  <g id="_8d0cc61eec8f898c2de3936fda7130ee" data-name="8d0cc61eec8f898c2de3936fda7130ee" transform="translate(-2 -2)">
    <path id="路径_1225" data-name="路径 1225" d="M12.289,2A10.289,10.289,0,1,0,22.578,12.289,10.289,10.289,0,0,0,12.289,2Zm6.725,15.977-.485-.492a.738.738,0,1,0-1.044,1.044l.492.485a8.746,8.746,0,0,1-4.953,2.095v-.735a.735.735,0,1,0-1.47,0v.735A8.746,8.746,0,0,1,6.6,19.05l.492-.485a.738.738,0,1,0-1.044-1.044l-.485.492a8.746,8.746,0,0,1-2.058-4.99h.7a.735.735,0,0,0,0-1.47H3.47A8.746,8.746,0,0,1,5.528,6.6l.485.492A.738.738,0,1,0,7.056,6.049l-.492-.485a8.746,8.746,0,0,1,4.99-2.058v.7a.735.735,0,0,0,1.47,0V3.47a8.746,8.746,0,0,1,4.953,2.058l-.492.485a.738.738,0,0,0,1.044,1.044l.485-.492a8.746,8.746,0,0,1,2.095,4.99h-.735a.735.735,0,1,0,0,1.47h.735a8.746,8.746,0,0,1-2.095,4.953Z" transform="translate(0 0)" fill="#fff"/>
    <path id="路径_1226" data-name="路径 1226" d="M19.005,14.96,16.47,13.689V9.735a.735.735,0,0,0-1.47,0v4.41a.735.735,0,0,0,.4.654l2.94,1.47a.684.684,0,0,0,.331.081.734.734,0,0,0,.331-1.389Z" transform="translate(-3.446 -1.855)" fill="#fff"/>
  </g>
</svg>
