<svg xmlns="http://www.w3.org/2000/svg" xmlns:xlink="http://www.w3.org/1999/xlink" width="93.056" height="80.224" viewBox="0 0 93.056 80.224">
  <defs>
    <linearGradient id="linear-gradient" x1="0.519" y1="1.243" x2="0.483" y2="0.2" gradientUnits="objectBoundingBox">
      <stop offset="0" stop-color="#c45dfa"/>
      <stop offset="0.13" stop-color="#bc58f4"/>
      <stop offset="0.33" stop-color="#a74be6"/>
      <stop offset="0.56" stop-color="#8636cf"/>
      <stop offset="0.83" stop-color="#5719b0"/>
      <stop offset="1" stop-color="#360599"/>
    </linearGradient>
  </defs>
  <g id="图层_8" data-name="图层 8" transform="translate(-0.003)">
    <g id="组_960" data-name="组 960" transform="translate(0.002)">
      <path id="路径_1489" data-name="路径 1489" d="M55.62,72.719l-9.088-9.088-9.091,9.088a25.625,25.625,0,0,1-18.054,7.5H73.674a25.625,25.625,0,0,1-18.054-7.5M19.262,63.628a12.911,12.911,0,0,1,0-18.179q13.632-13.636,27.27-27.27Q60.164,31.816,73.8,45.449A12.855,12.855,0,1,1,55.62,63.628l4.547,4.544A19.282,19.282,0,0,0,87.434,40.9Q66.977,20.454,46.529,0,26.077,20.453,5.627,40.9A19.283,19.283,0,0,0,32.9,68.172l4.544-4.544a12.911,12.911,0,0,1-18.179,0Z" transform="translate(-0.002)" fill-rule="evenodd" fill="url(#linear-gradient)"/>
      <g id="组_959" data-name="组 959" transform="translate(33.377 35.89)">
        <rect id="矩形_855" data-name="矩形 855" width="20.946" height="0.742" transform="translate(2.679 21.246)" fill="#fff"/>
        <path id="路径_1490" data-name="路径 1490" d="M137.962,136.574a3.5,3.5,0,0,0-.533,2.833c.5,2.028.876,5.44-2.345,5.072-2.539-.291-1.823-3.218-1.073-5.115a4.806,4.806,0,0,0,.02-3.5L130.16,125.82l-3.871,10.041a4.82,4.82,0,0,0,.02,3.5c.75,1.9,1.469,4.826-1.073,5.115-3.22.368-2.841-3.044-2.345-5.072a3.5,3.5,0,0,0-.533-2.833l-5.348-7.688,1.335,10.429c2.49,4.33,1.344,7.277,1.344,7.277h20.946s-1.147-2.947,1.344-7.277l1.335-10.429-5.348,7.688Z" transform="translate(-117.01 -125.82)" fill="#fff"/>
      </g>
    </g>
  </g>
</svg>
