<svg id="图层_8" data-name="图层 8" xmlns="http://www.w3.org/2000/svg" width="20.649" height="17.801" viewBox="0 0 20.649 17.801">
  <g id="组_960" data-name="组 960" transform="translate(0)">
    <path id="路径_1489" data-name="路径 1489" d="M12.344,16.136l-2.017-2.017L8.31,16.136A5.686,5.686,0,0,1,4.3,17.8H16.35a5.686,5.686,0,0,1-4.006-1.665M4.276,14.119a2.865,2.865,0,0,1,0-4.034l6.051-6.051,6.05,6.051a2.852,2.852,0,0,1-4.034,4.034l1.009,1.008A4.279,4.279,0,0,0,19.4,9.076Q14.864,4.539,10.327,0L1.251,9.076A4.279,4.279,0,0,0,7.3,15.127L8.31,14.119a2.865,2.865,0,0,1-4.034,0Z" transform="translate(-0.002)" fill="#fff" fill-rule="evenodd"/>
    <g id="组_959" data-name="组 959" transform="translate(7.406 7.964)">
      <rect id="矩形_855" data-name="矩形 855" width="4.648" height="0.165" transform="translate(0.594 4.714)" fill="#fff"/>
      <path id="路径_1490" data-name="路径 1490" d="M121.659,128.206a.777.777,0,0,0-.118.629c.11.45.194,1.207-.52,1.125-.563-.065-.4-.714-.238-1.135a1.066,1.066,0,0,0,0-.777l-.859-2.228-.859,2.228a1.07,1.07,0,0,0,0,.777c.166.422.326,1.071-.238,1.135-.715.082-.63-.675-.52-1.125a.778.778,0,0,0-.118-.629L117.01,126.5l.3,2.314a1.989,1.989,0,0,1,.3,1.615h4.648a1.989,1.989,0,0,1,.3-1.615l.3-2.314-1.187,1.706Z" transform="translate(-117.01 -125.82)" fill="#fff"/>
    </g>
  </g>
</svg>
