<svg xmlns="http://www.w3.org/2000/svg" width="10.88" height="10.881" viewBox="0 0 10.88 10.881">
  <path id="a6885eb6e001cb4ac46645863295fba3" d="M10.685,9.427a2.566,2.566,0,0,1-2.592,1.445A8.266,8.266,0,0,1,4.351,9.325,12.323,12.323,0,0,1,.482,4.707,3.875,3.875,0,0,1,.64.69,1.538,1.538,0,0,1,1.866,0c.746-.036.85.39,1.106,1.055.191.5.445,1,.588,1.519.266.961-.664,1-.782,1.787-.073.5.527,1.16.8,1.513A7.33,7.33,0,0,0,5.468,7.619c.413.26,1.079.73,1.552.471.728-.4.66-1.627,1.678-1.211a16.386,16.386,0,0,1,1.541.8c.778.419.742.852.445,1.753h0" transform="translate(0 0)" fill="#fff" fill-rule="evenodd"/>
</svg>
