<svg xmlns="http://www.w3.org/2000/svg" width="15.862" height="15.862" viewBox="0 0 15.862 15.862">
  <g id="Layer_1" data-name="Layer 1" transform="translate(0.002 0.002)">
    <g id="组_976" data-name="组 976" transform="translate(-0.002 -0.002)">
      <path id="路径_1508" data-name="路径 1508" d="M15.617,5.99a7.929,7.929,0,1,0-5.75,9.627,7.929,7.929,0,0,0,5.75-9.627ZM3.5,8.74a3.92,3.92,0,0,1-.846-5.472,3.92,3.92,0,0,1,5.4-1.217A3.919,3.919,0,0,1,8.9,7.523,3.92,3.92,0,0,1,3.5,8.74Zm8.661,2.747c-.713,1.188-1.986,1.733-2.844,1.219s-.974-1.9-.261-3.083S11.038,7.889,11.9,8.4,12.869,10.3,12.156,11.487Z" transform="translate(0.002 0.002)" fill="#fff"/>
      <path id="路径_1509" data-name="路径 1509" d="M537.182,332.159q-1.293-.228-1.54,1.173l-.486,2.755a1.432,1.432,0,0,0,.155,1.059,1.486,1.486,0,0,0,1.909.336,1.432,1.432,0,0,0,.507-.942l.174-.985a1.523,1.523,0,0,0-.077-.958.837.837,0,0,0-.645-.439.808.808,0,0,0-.869.339l.174-.985a.871.871,0,0,1,.206-.5.43.43,0,0,1,.38-.084q.439.077.345.608l-.034.192.8.141.024-.139a1.45,1.45,0,0,0-.146-1.061,1.233,1.233,0,0,0-.877-.516Zm-.485,2.708q.439.077.345.608l-.171.97q-.092.523-.531.446t-.346-.6l.171-.97Q536.258,334.79,536.7,334.867Z" transform="translate(-530.914 -329.515)" fill="#fff"/>
    </g>
  </g>
</svg>
