<svg xmlns="http://www.w3.org/2000/svg" width="20.169" height="20.169" viewBox="0 0 20.169 20.169">
  <g id="Layer_2" data-name="Layer 2" transform="translate(-2 -2)">
    <path id="menu-arrow-circle" d="M12.085,2A10.085,10.085,0,1,0,22.169,12.085,10.085,10.085,0,0,0,12.085,2Zm0,16.136a1.008,1.008,0,1,1,1.008-1.008A1.008,1.008,0,0,1,12.085,18.136Zm1.008-5.2V14.1a1.008,1.008,0,1,1-2.017,0V12.085a1.008,1.008,0,0,1,1.008-1.008,1.513,1.513,0,1,0-1.513-1.513,1.008,1.008,0,0,1-2.017,0,3.53,3.53,0,1,1,4.538,3.368Z" fill="#fff"/>
  </g>
</svg>
