<svg xmlns="http://www.w3.org/2000/svg" width="43.297" height="43.297" viewBox="0 0 43.297 43.297">
  <g id="_010c0ef101adc5574a67d68e75347206" data-name="010c0ef101adc5574a67d68e75347206" transform="translate(-1.25 -1.25)">
    <path id="路径_1504" data-name="路径 1504" d="M6.767,19.838a1.511,1.511,0,0,1,2.131.145l3.393,3.888V7.76a1.51,1.51,0,1,1,3.021,0V27.9a1.51,1.51,0,0,1-2.648.993L6.622,21.969A1.511,1.511,0,0,1,6.767,19.838ZM21.327,6.346a1.51,1.51,0,0,0-.98,1.414V27.9a1.51,1.51,0,1,0,3.021,0V11.788l3.393,3.888a1.51,1.51,0,0,0,2.276-1.986L23,6.767A1.51,1.51,0,0,0,21.327,6.346Z" transform="translate(5.069 5.069)" fill="#fff" fill-rule="evenodd"/>
    <path id="路径_1505" data-name="路径 1505" d="M22.9,4.271a18.535,18.535,0,0,0-9.313,2.491,1.51,1.51,0,0,1-1.513-2.615,21.639,21.639,0,1,1-7.926,7.926,1.51,1.51,0,0,1,2.615,1.513A18.63,18.63,0,1,0,22.9,4.271Z" transform="translate(0 0)" fill="#fff" fill-rule="evenodd"/>
  </g>
</svg>
