<svg xmlns="http://www.w3.org/2000/svg" width="44.591" height="54.767" viewBox="0 0 44.591 54.767">
  <g id="Icon-Trash" transform="translate(219.5 220)">
    <path id="Fill-6" d="M-207.5-205.1h3.43v27.441h-3.43Z" transform="translate(1.72 2.136)" fill="#00003c"/>
    <path id="Fill-7" d="M-201.5-205.1h3.43v27.441h-3.43Z" transform="translate(2.581 2.136)" fill="#00003c"/>
    <path id="Fill-8" d="M-195.5-205.1h3.43v27.441h-3.43Z" transform="translate(3.441 2.136)" fill="#00003c"/>
    <path id="Fill-9" d="M-219.5-214.1h44.591v3.43H-219.5Z" transform="translate(0 0.846)" fill="#00003c"/>
    <path id="Fill-10" d="M-190.478-211.539h-3.2v-3.43a1.806,1.806,0,0,0-1.829-1.829h-6.86a1.806,1.806,0,0,0-1.829,1.829v3.43h-3.2v-3.43A5.075,5.075,0,0,1-202.369-220h6.86a5.075,5.075,0,0,1,5.031,5.031v3.43" transform="translate(1.735 0)" fill="#00003c"/>
    <path id="Fill-11" d="M-187.344-166.279h-20.581a5.55,5.55,0,0,1-5.374-5.031l-3.2-41.161,3.43-.229,3.2,41.161a2.072,2.072,0,0,0,1.944,1.829h20.581a1.987,1.987,0,0,0,1.944-1.829l3.2-41.161,3.43.229-3.2,41.161a5.459,5.459,0,0,1-5.374,5.031" transform="translate(0.43 1.047)" fill="#00003c"/>
  </g>
</svg>
