<svg xmlns="http://www.w3.org/2000/svg" width="27.233" height="23.148" viewBox="0 0 27.233 23.148">
  <path id="b015b58f542f59b62acacd99ce77d2ec" d="M27.872,13.032H26.51V11.67a1.362,1.362,0,1,0-2.723,0v1.362H22.425a1.362,1.362,0,0,0,0,2.723h1.362v1.362a1.362,1.362,0,0,0,2.723,0V15.755h1.362a1.362,1.362,0,1,0,0-2.723ZM17.387,15.374A6.7,6.7,0,0,0,19.7,10.308a6.808,6.808,0,0,0-13.617,0A6.7,6.7,0,0,0,8.4,15.374,10.893,10.893,0,0,0,2,25.287a1.362,1.362,0,0,0,2.723,0,8.17,8.17,0,1,1,16.34,0,1.362,1.362,0,0,0,2.723,0,10.893,10.893,0,0,0-6.4-9.913Zm-4.493-.98a4.085,4.085,0,1,1,4.085-4.085A4.085,4.085,0,0,1,12.893,14.393Z" transform="translate(-2 -3.5)" fill="#fff"/>
</svg>
