<svg xmlns="http://www.w3.org/2000/svg" width="41.62" height="41.62" viewBox="0 0 41.62 41.62">
  <g id="组_859" data-name="组 859" transform="translate(-930.965 -174.242)">
    <g id="组_261" data-name="组 261" transform="translate(931.465 174.742)">
      <circle id="椭圆_57" data-name="椭圆 57" cx="20.31" cy="20.31" r="20.31" fill="#fff" stroke="#00003c" stroke-width="1"/>
      <path id="路径_247" data-name="路径 247" d="M983.6,223.141a19.2,19.2,0,0,0,15.362-7.666,17.568,17.568,0,0,0-11.337-9.618,3.3,3.3,0,0,0-1.865.068,6.811,6.811,0,0,1-4.32,0,3.3,3.3,0,0,0-1.864-.068,17.567,17.567,0,0,0-11.337,9.618A19.2,19.2,0,0,0,983.6,223.141Z" transform="translate(-963.291 -183.605)" fill="#00003c"/>
      <ellipse id="椭圆_58" data-name="椭圆 58" cx="7.302" cy="7.866" rx="7.302" ry="7.866" transform="translate(13.007 5.835)" fill="#00003c"/>
    </g>
  </g>
</svg>
