<svg xmlns="http://www.w3.org/2000/svg" width="27.792" height="27.792" viewBox="0 0 27.792 27.792">
  <g id="组_421" data-name="组 421" transform="translate(0.5 0.5)">
    <g id="组_261" data-name="组 261">
      <circle id="椭圆_57" data-name="椭圆 57" cx="13.396" cy="13.396" r="13.396" fill="#fff" stroke="#360599" stroke-width="1"/>
      <path id="路径_247" data-name="路径 247" d="M978.371,217.222a12.661,12.661,0,0,0,10.132-5.056,11.588,11.588,0,0,0-7.478-6.344,2.176,2.176,0,0,0-1.23.045,4.492,4.492,0,0,1-2.849,0,2.175,2.175,0,0,0-1.23-.045,11.587,11.587,0,0,0-7.478,6.344A12.661,12.661,0,0,0,978.371,217.222Z" transform="translate(-964.975 -191.145)" fill="#360599"/>
      <ellipse id="椭圆_58" data-name="椭圆 58" cx="4.817" cy="5.188" rx="4.817" ry="5.188" transform="translate(8.579 3.849)" fill="#360599"/>
    </g>
  </g>
</svg>
