<svg xmlns="http://www.w3.org/2000/svg" width="21.745" height="21.728" viewBox="0 0 21.745 21.728">
  <path id="e15731df9e46089b99ef1730fa89e98d" d="M11.208,23.616a11.067,11.067,0,0,0,3.306,0,10.865,10.865,0,0,0,9.212-10.694v-.054A10.865,10.865,0,0,0,14.514,2.135a11.237,11.237,0,0,0-3.306,0,10.865,10.865,0,0,0,0,21.482ZM6.691,13.7a15.335,15.335,0,0,0,.776,4.036A15.763,15.763,0,0,0,5.55,18.6a9.4,9.4,0,0,1-1.94-4.9ZM8.018,6.551a14.481,14.481,0,0,1-1.366-.59A9.414,9.414,0,0,1,9.26,4.331a15.242,15.242,0,0,0-1.242,2.22Zm.916,1.925a15.2,15.2,0,0,0,3.927.512,15.521,15.521,0,0,0,3.927-.512,13.791,13.791,0,0,1,.7,3.663H8.2a14.148,14.148,0,0,1,.73-3.663ZM17.7,19.2a14.536,14.536,0,0,1,1.381.6,9.39,9.39,0,0,1-2.623,1.661A14.5,14.5,0,0,0,17.7,19.2Zm0-12.65a15.242,15.242,0,0,0-1.242-2.22,9.414,9.414,0,0,1,2.608,1.63,14.482,14.482,0,0,1-1.366.59ZM17.517,13.7a13.837,13.837,0,0,1-.683,3.578,15.521,15.521,0,0,0-7.869,0A14.039,14.039,0,0,1,8.282,13.7Zm-9.5,5.5A14.5,14.5,0,0,0,9.26,21.459,9.39,9.39,0,0,1,6.652,19.8a14.535,14.535,0,0,1,1.366-.6Zm3.7,2.91A13.628,13.628,0,0,1,9.5,18.727a14.062,14.062,0,0,1,6.721,0A13.628,13.628,0,0,1,14,22.111a9.351,9.351,0,0,1-2.282,0ZM20.194,18.6a15.762,15.762,0,0,0-1.9-.869,15.475,15.475,0,0,0,.776-4.036h3.1A9.313,9.313,0,0,1,20.194,18.6Zm1.979-6.457h-3.1a15.522,15.522,0,0,0-.776-4.129,15.351,15.351,0,0,0,1.925-.869,9.313,9.313,0,0,1,1.956,5ZM14.032,3.609a13.628,13.628,0,0,1,2.22,3.384,13.969,13.969,0,0,1-6.721,0,13.628,13.628,0,0,1,2.22-3.384A8.42,8.42,0,0,1,14.032,3.609ZM5.527,7.148a14.745,14.745,0,0,0,1.9.869,15.048,15.048,0,0,0-.776,4.129h-3.1a9.313,9.313,0,0,1,1.979-5Z" transform="translate(-1.981 -2.012)" fill="#fff"/>
</svg>
