<svg id="d1dfdcc40351c2f03a13d528963ab89a" xmlns="http://www.w3.org/2000/svg" width="27.447" height="27.447" viewBox="0 0 27.447 27.447">
  <path id="路径_1356" data-name="路径 1356" d="M8.715,4H7v8.577h6.862V10.862H8.715Z" transform="translate(5.008 2.862)" fill="#f9a30e"/>
  <path id="路径_1357" data-name="路径 1357" d="M27.447,12.008V5.146L25.56,7.033A13.174,13.174,0,0,0,13.723,0a13.723,13.723,0,0,0,0,27.447,13.394,13.394,0,0,0,10.293-4.8l-2.573-2.23a10.039,10.039,0,0,1-7.719,3.6,10.293,10.293,0,0,1,0-20.585,10.747,10.747,0,0,1,9.435,6l-2.573,2.573Z" fill="#f9a30e"/>
</svg>
