<svg id="icon_outline_messages-2" data-name="icon/outline/messages-2" xmlns="http://www.w3.org/2000/svg" width="20" height="20" viewBox="0 0 20 20">
  <rect id="icon_outline_messages-2-2" data-name="icon/outline/messages-2" width="20" height="20" fill="none"/>
  <g id="vuesax_outline_messages-2" data-name="vuesax/outline/messages-2">
    <g id="messages-2">
      <g id="Vector" transform="translate(2.983 1.05)" fill="#197aeb">
        <path d="M 11.90832901000977 16.67500495910645 C 11.73118114471436 16.67498970031738 11.56615161895752 16.62932014465332 11.41784000396729 16.53926467895508 L 11.41569042205811 16.53796577453613 L 11.41353988647461 16.53668594360352 L 8.071880340576172 14.55334568023682 L 7.959370136260986 14.48656558990479 L 7.828580379486084 14.48345565795898 C 7.472410202026367 14.4749755859375 7.145700454711914 14.44876575469971 6.857510089874268 14.40553569793701 C 6.807510375976562 14.39812564849854 6.767660140991211 14.36637496948242 6.750000476837158 14.32046508789062 C 6.732990264892578 14.27623558044434 6.739950180053711 14.23694515228271 6.771300315856934 14.2003755569458 C 7.395220279693604 13.47246551513672 7.725000381469727 12.59055519104004 7.725000381469727 11.64998531341553 C 7.725000381469727 9.357065200805664 5.725000381469727 7.491635322570801 3.266670227050781 7.491635322570801 C 2.347501754760742 7.491635322570801 1.473246097564697 7.746713638305664 0.7380052804946899 8.229351997375488 C 0.7153080105781555 8.243381500244141 0.6913207769393921 8.250485420227051 0.6667002439498901 8.250485420227051 C 0.6485861539840698 8.250485420227051 0.6302629709243774 8.246570587158203 0.6121618151664734 8.23883056640625 C 0.571567714214325 8.218112945556641 0.5427722334861755 8.18073844909668 0.5383702516555786 8.142664909362793 C 0.512340247631073 7.899495124816895 0.5000002384185791 7.69134521484375 0.5000002384185791 7.491665363311768 C 0.5000002384185791 3.636455297470093 3.857010364532471 0.5000053644180298 7.983330249786377 0.5000053644180298 C 12.10965061187744 0.5000053644180298 15.46666049957275 3.636455297470093 15.46666049957275 7.491665363311768 C 15.46666049957275 9.5858154296875 14.48068046569824 11.54633522033691 12.76154041290283 12.87054538726807 L 12.53505039215088 13.04499530792236 L 12.5705099105835 13.32867527008057 L 12.85385036468506 15.59536552429199 C 12.89782047271729 15.96920490264893 12.73558044433594 16.31707572937012 12.41941070556641 16.52230453491211 C 12.26689910888672 16.62033843994141 12.08472919464111 16.67499923706055 11.90832901000977 16.67500495910645 Z M 11.53971576690674 16.31863021850586 C 11.65398502349854 16.38934135437012 11.78164482116699 16.42667579650879 11.90953063964844 16.42667579650879 C 12.04065799713135 16.42667579650879 12.17005157470703 16.38773918151855 12.28447151184082 16.31396675109863 C 12.5167932510376 16.16881561279297 12.6416015625 15.89793109893799 12.60417461395264 15.61891269683838 L 12.280198097229 12.99384117126465 C 12.27558422088623 12.94218826293945 12.2958517074585 12.89304065704346 12.33358573913574 12.86433887481689 C 14.16584396362305 11.57770538330078 15.21667003631592 9.613675117492676 15.21667003631592 7.474995136260986 C 15.21667003631592 3.757635354995728 11.97181034088135 0.7333353161811829 7.983340263366699 0.7333353161811829 C 4.168110370635986 0.7333353161811829 0.9949902296066284 3.515385389328003 0.7594302296638489 7.066945552825928 L 0.7075502276420593 7.849085330963135 L 1.438650250434875 7.566385269165039 C 2.024450302124023 7.339875221252441 2.636680364608765 7.225025177001953 3.258340358734131 7.225025177001953 C 5.854520320892334 7.225025177001953 7.966670036315918 9.20257568359375 7.966670036315918 11.63331508636475 L 7.966670036315918 11.636155128479 L 7.966700077056885 11.63899517059326 C 7.973960399627686 12.27776527404785 7.826280117034912 12.9043550491333 7.527780055999756 13.50138568878174 L 7.135330200195312 14.28628540039062 L 8.010434150695801 14.22373008728027 C 8.012550354003906 14.22383689880371 8.020347595214844 14.22563076019287 8.030940055847168 14.23269557952881 L 8.041740417480469 14.23989486694336 L 8.052900314331055 14.24652576446533 L 11.53971576690674 16.31863021850586 Z" stroke="none"/>
        <path d="M 11.90830993652344 17.17500495910645 L 11.90832996368408 17.17498588562012 C 11.65000057220459 17.17498588562012 11.39167022705078 17.10832595825195 11.15834045410156 16.96665573120117 L 7.816680431365967 14.98331546783447 C 7.46668004989624 14.97498512268066 7.116680145263672 14.95000553131104 6.783340454101562 14.90000534057617 C 6.558340072631836 14.86667537689209 6.36667013168335 14.71663570404053 6.28333044052124 14.49997520446777 C 6.200000286102295 14.28330516815186 6.24167013168335 14.04997539520264 6.391670227050781 13.87497520446777 C 6.941670417785645 13.23330497741699 7.225000381469727 12.46665573120117 7.225000381469727 11.64998531341553 C 7.225000381469727 9.633315086364746 5.450000286102295 7.991635322570801 3.266670227050781 7.991635322570801 C 2.450000286102295 7.991635322570801 1.666660308837891 8.216665267944336 1.008330225944519 8.650005340576172 C 0.8250003457069397 8.766674995422363 0.6000003814697266 8.783326148986816 0.4000002443790436 8.691665649414062 C 0.2083302438259125 8.599995613098145 0.0666702464222908 8.416645050048828 0.04167025163769722 8.19997501373291 C 0.01667024940252304 7.966645240783691 2.497863818007318e-07 7.733325481414795 2.497863818007318e-07 7.491665363311768 C 2.497863818007318e-07 3.358335256576538 3.583330154418945 5.34057608092553e-06 7.983330249786377 5.34057608092553e-06 C 12.38333034515381 5.34057608092553e-06 15.96666049957275 3.358335256576538 15.96666049957275 7.491665363311768 C 15.96666049957275 9.758335113525391 14.91664981842041 11.84165573120117 13.066650390625 13.26665496826172 L 13.34998989105225 15.53334522247314 C 13.41666030883789 16.10001564025879 13.16664981842041 16.63335609436035 12.691650390625 16.94169616699219 C 12.45832061767578 17.09169578552246 12.18331050872803 17.17500495910645 11.90830993652344 17.17500495910645 Z M 8.01032543182373 13.72372627258301 C 8.11506462097168 13.72372627258301 8.218425750732422 13.75674724578857 8.308330535888672 13.81669521331787 L 11.80000019073486 15.89168548583984 C 11.89167022705078 15.95001411437988 11.96665954589844 15.92501544952393 12.01666069030762 15.89168548583984 C 12.05833053588867 15.86668491363525 12.12499046325684 15.80001544952393 12.10832977294922 15.6833553314209 L 11.78332996368408 13.04999542236328 C 11.75833034515381 12.81666564941406 11.85832977294922 12.59169578552246 12.04166030883789 12.45836544036865 C 13.74166011810303 11.26669502258301 14.71667003631592 9.449995040893555 14.71667003631592 7.474995136260986 C 14.71667003631592 4.0333251953125 11.69999980926514 1.233335375785828 7.983340263366699 1.233335375785828 C 4.408340454101562 1.233335375785828 1.475000262260437 3.833365440368652 1.258330225944519 7.100035190582275 C 1.883330225944519 6.858365535736084 2.558340311050415 6.725025177001953 3.258340358734131 6.725025177001953 C 6.133340358734131 6.725025177001953 8.466670036315918 8.924984931945801 8.466670036315918 11.63331508636475 C 8.475000381469727 12.3666353225708 8.299990653991699 13.07497501373291 7.974990367889404 13.72498512268066 C 7.986768245697021 13.72414302825928 7.99856424331665 13.72372627258301 8.01032543182373 13.72372627258301 Z" stroke="none" fill="#197aeb"/>
      </g>
      <path id="Vector-2" data-name="Vector" d="M2.767,11.175a1.11,1.11,0,0,1-.617-.183,1.142,1.142,0,0,1-.525-1.1l.167-1.283A4.8,4.8,0,0,1,0,4.908,4.812,4.812,0,0,1,2.275.858,5.37,5.37,0,0,1,5.208,0a5.068,5.068,0,0,1,5.208,4.908A4.7,4.7,0,0,1,9.283,7.95a5.221,5.221,0,0,1-3.9,1.858L3.35,11.017a1.138,1.138,0,0,1-.583.158ZM5.2,1.25a4.093,4.093,0,0,0-2.258.658,3.572,3.572,0,0,0-1.7,3,3.482,3.482,0,0,0,1.567,2.9.633.633,0,0,1,.267.592L2.892,9.825,4.883,8.642A.632.632,0,0,1,5.2,8.55,4.038,4.038,0,0,0,8.317,7.133,3.418,3.418,0,0,0,9.158,4.9,3.82,3.82,0,0,0,5.2,1.25Z" transform="translate(1.05 7.783)" fill="#197aeb"/>
      <path id="Vector-3" data-name="Vector" d="M0,0H20V20H0Z" fill="#197aeb" opacity="0"/>
    </g>
  </g>
</svg>
