<svg id="icon_outline_card-edit" data-name="icon/outline/card-edit" xmlns="http://www.w3.org/2000/svg" width="20" height="20" viewBox="0 0 20 20">
  <rect id="icon_outline_card-edit-2" data-name="icon/outline/card-edit" width="20" height="20" fill="none"/>
  <g id="vuesax_outline_card-edit" data-name="vuesax/outline/card-edit">
    <g id="card-edit">
      <g id="Vector" transform="translate(1.042 6.458)" fill="#197aeb">
        <path d="M 8.541674613952637 0.75 L 0.6250049471855164 0.75 C 0.55958491563797 0.75 0.5000049471855164 0.6904199719429016 0.5000049471855164 0.625 C 0.5000049471855164 0.5595800280570984 0.55958491563797 0.5 0.6250049471855164 0.5 L 8.541674613952637 0.5 C 8.607094764709473 0.5 8.666674613952637 0.5595800280570984 8.666674613952637 0.625 C 8.666674613952637 0.6904199719429016 8.607094764709473 0.75 8.541674613952637 0.75 Z" stroke="none"/>
        <path d="M 8.541674613952637 1.25 L 0.6250049471855164 1.25 C 0.2833349108695984 1.25 4.922790594719118e-06 0.9666699767112732 4.922790594719118e-06 0.625 C 4.922790594719118e-06 0.2833299934864044 0.2833349108695984 0 0.6250049471855164 0 L 8.541674613952637 0 C 8.883344650268555 0 9.166674613952637 0.2833299934864044 9.166674613952637 0.625 C 9.166674613952637 0.9666699767112732 8.883344650268555 1.25 8.541674613952637 1.25 Z" stroke="none" fill="#197aeb"/>
      </g>
      <path id="Vector-2" data-name="Vector" d="M2.292,1.25H.625A.63.63,0,0,1,0,.625.63.63,0,0,1,.625,0H2.292a.63.63,0,0,1,.625.625A.63.63,0,0,1,2.292,1.25Z" transform="translate(4.375 13.125)" fill="#197aeb"/>
      <path id="Vector-3" data-name="Vector" d="M3.958,1.25H.625A.63.63,0,0,1,0,.625.63.63,0,0,1,.625,0H3.958a.63.63,0,0,1,.625.625.63.63,0,0,1-.625.625Z" transform="translate(8.125 13.125)" fill="#197aeb"/>
      <path id="Vector-4" data-name="Vector" d="M13.592,15.417H4.325c-3.317,0-4.325-1-4.325-4.283V4.283C0,1,1.008,0,4.325,0h6.717a.63.63,0,0,1,.625.625.63.63,0,0,1-.625.625H4.325c-2.617,0-3.075.45-3.075,3.033v6.842c0,2.583.458,3.033,3.075,3.033h9.258c2.617,0,3.075-.45,3.075-3.033v-3.4a.625.625,0,0,1,1.25,0v3.4c.008,3.292-1,4.292-4.317,4.292Z" transform="translate(1.042 2.292)" fill="#197aeb"/>
      <path id="Vector-5" data-name="Vector" d="M1.19,7.214a1.169,1.169,0,0,1-.85-.342,1.216,1.216,0,0,1-.325-1.05L.181,4.639a1.682,1.682,0,0,1,.433-.867L3.706.681a1.816,1.816,0,0,1,2.825,0,1.814,1.814,0,0,1,0,2.825L3.44,6.6a1.682,1.682,0,0,1-.867.433L1.39,7.2a1.619,1.619,0,0,1-.2.017ZM5.115,1.247c-.167,0-.317.117-.525.317L1.506,4.656a.624.624,0,0,0-.083.167L1.256,5.947,2.39,5.789a.625.625,0,0,0,.167-.083L5.648,2.614c.392-.392.45-.608,0-1.05-.217-.217-.375-.317-.533-.317Z" transform="translate(11.744 2.319)" fill="#197aeb"/>
      <path id="Vector-6" data-name="Vector" d="M2.556,3.19a.537.537,0,0,1-.167-.025A3.434,3.434,0,0,1,.023.8.633.633,0,0,1,.456.023a.633.633,0,0,1,.775.433A2.213,2.213,0,0,0,2.74,1.965a.624.624,0,0,1,.433.767.658.658,0,0,1-.617.458Z" transform="translate(14.835 3.26)" fill="#197aeb"/>
      <path id="Vector-7" data-name="Vector" d="M0,0H20V20H0Z" fill="none" opacity="0"/>
    </g>
  </g>
</svg>
