<svg xmlns="http://www.w3.org/2000/svg" xmlns:xlink="http://www.w3.org/1999/xlink" width="116" height="116" viewBox="0 0 116 116">
  <defs>
    <filter id="Icon" x="0" y="0" width="116" height="116" filterUnits="userSpaceOnUse">
      <feOffset dy="2" input="SourceAlpha"/>
      <feGaussianBlur stdDeviation="4" result="blur"/>
      <feFlood flood-color="#101828" flood-opacity="0.059"/>
      <feComposite operator="in" in2="blur"/>
      <feComposite in="SourceGraphic"/>
    </filter>
    <linearGradient id="linear-gradient" x1="0.519" y1="1.243" x2="0.483" y2="0.2" gradientUnits="objectBoundingBox">
      <stop offset="0" stop-color="#c45dfa"/>
      <stop offset="0.13" stop-color="#bc58f4"/>
      <stop offset="0.33" stop-color="#a74be6"/>
      <stop offset="0.56" stop-color="#8636cf"/>
      <stop offset="0.83" stop-color="#5719b0"/>
      <stop offset="1" stop-color="#360599"/>
    </linearGradient>
  </defs>
  <g id="Icon-2" data-name="Icon" transform="translate(12 9.698)">
    <g transform="matrix(1, 0, 0, 1, -12, -9.7)" filter="url(#Icon)">
      <rect id="Icon-3" data-name="Icon" width="92" height="92" rx="12" transform="translate(12 10)" fill="#f9fafb"/>
    </g>
    <g id="组_960" data-name="组 960" transform="translate(8.892 14.311)">
      <path id="路径_1489" data-name="路径 1489" d="M44.36,58l-7.248-7.248L29.861,58a20.437,20.437,0,0,1-14.4,5.986h43.3A20.437,20.437,0,0,1,44.36,58m-29-7.25a10.3,10.3,0,0,1,0-14.5Q26.235,25.372,37.112,14.5,47.984,25.374,58.859,36.248a10.252,10.252,0,0,1-14.5,14.5l3.626,3.624A15.378,15.378,0,1,0,69.733,32.621Q53.418,16.313,37.11,0,20.8,16.312,4.488,32.621A15.379,15.379,0,0,0,26.237,54.37l3.624-3.624a10.3,10.3,0,0,1-14.5,0Z" transform="translate(-0.002)" fill-rule="evenodd" fill="url(#linear-gradient)"/>
      <g id="组_959" data-name="组 959" transform="translate(26.619 28.624)">
        <rect id="矩形_855" data-name="矩形 855" width="16.705" height="0.592" transform="translate(2.136 16.944)"/>
        <path id="路径_1490" data-name="路径 1490" d="M133.72,134.4a2.8,2.8,0,0,0-.425,2.259c.4,1.618.7,4.338-1.87,4.045-2.025-.232-1.454-2.566-.855-4.079a3.833,3.833,0,0,0,.016-2.794L127.5,125.82l-3.087,8.008a3.844,3.844,0,0,0,.016,2.794c.6,1.515,1.172,3.849-.855,4.079-2.568.293-2.266-2.427-1.87-4.045a2.8,2.8,0,0,0-.425-2.259l-4.266-6.131,1.065,8.317c1.986,3.453,1.072,5.8,1.072,5.8h16.705s-.915-2.35,1.072-5.8l1.065-8.317-4.266,6.131Z" transform="translate(-117.01 -125.82)"/>
      </g>
    </g>
  </g>
</svg>
