<svg id="icon_bold_microphone-2" data-name="icon/bold/microphone-2" xmlns="http://www.w3.org/2000/svg" width="20" height="20" viewBox="0 0 20 20">
  <rect id="icon_bold_microphone-2-2" data-name="icon/bold/microphone-2" width="20" height="20" fill="none"/>
  <g id="vuesax_bold_microphone-2" data-name="vuesax/bold/microphone-2">
    <g id="microphone-2">
      <g id="Vector" transform="translate(3.483 7.592)" fill="#667085">
        <path d="M 6.516669750213623 10.24165916442871 C 6.467609882354736 10.24165916442871 6.433339595794678 10.20738983154297 6.433339595794678 10.15832996368408 L 6.433339595794678 8.383329391479492 L 6.433339595794678 7.926409721374512 L 5.978269577026367 7.885349750518799 C 4.487489700317383 7.750849723815918 3.105759859085083 7.067899703979492 2.087589740753174 5.962319374084473 C 1.063829779624939 4.850659370422363 0.5000097751617432 3.407959699630737 0.5000097751617432 1.899999618530273 L 0.5000097751617432 0.5833295583724976 C 0.5000097751617432 0.5342695713043213 0.5342797636985779 0.4999995827674866 0.5833397507667542 0.4999995827674866 C 0.6323997378349304 0.4999995827674866 0.6666697263717651 0.5342695713043213 0.6666697263717651 0.5833295583724976 L 0.6666697263717651 1.908329606056213 C 0.6666697263717651 5.134029388427734 3.290969848632812 7.758329391479492 6.516669750213623 7.758329391479492 C 9.742369651794434 7.758329391479492 12.36666965484619 5.134029388427734 12.36666965484619 1.908329606056213 L 12.36666965484619 0.5916596055030823 C 12.36666965484619 0.5425995588302612 12.40093994140625 0.5083295702934265 12.44999980926514 0.5083295702934265 C 12.49287605285645 0.5083295702934265 12.53027534484863 0.5466492772102356 12.53332996368408 0.5928054451942444 L 12.53332996368408 1.899999618530273 C 12.53332996368408 3.407879590988159 11.96840953826904 4.851679801940918 10.94262981414795 5.965439796447754 C 9.922800064086914 7.072739601135254 8.542570114135742 7.754539489746094 7.056199550628662 7.885249614715576 L 6.599999904632568 7.925369739532471 L 6.599999904632568 8.383329391479492 L 6.599999904632568 10.15832996368408 C 6.599999904632568 10.20738983154297 6.56572961807251 10.24165916442871 6.516669750213623 10.24165916442871 Z" stroke="none"/>
        <path d="M 0.5833396911621094 0 C 0.9083395004272461 0 1.166669845581055 0.2583293914794922 1.166669845581055 0.5833292007446289 L 1.166669845581055 1.908329963684082 C 1.166669845581055 4.858329772949219 3.566669464111328 7.258329391479492 6.516669750213623 7.258329391479492 C 9.466670036315918 7.258329391479492 11.86666965484619 4.858329772949219 11.86666965484619 1.908329963684082 L 11.86666965484619 0.5916595458984375 C 11.86666965484619 0.2666597366333008 12.125 0.008329391479492187 12.44999980926514 0.008329391479492187 C 12.76667022705078 0.008329391479492187 13.02499961853027 0.2666597366333008 13.03332996368408 0.5833292007446289 L 13.03332996368408 1.899999618530273 C 13.03332996368408 5.291669368743896 10.41666030883789 8.091669082641602 7.099999904632568 8.383329391479492 L 7.099999904632568 10.15832996368408 C 7.099999904632568 10.48332977294922 6.84166955947876 10.74165916442871 6.516669750213623 10.74165916442871 C 6.191669940948486 10.74165916442871 5.933339595794678 10.48332977294922 5.933339595794678 10.15832996368408 L 5.933339595794678 8.383329391479492 C 2.608339309692383 8.083330154418945 9.5367431640625e-06 5.291659355163574 9.5367431640625e-06 1.899999618530273 L 9.5367431640625e-06 0.5833292007446289 C 9.5367431640625e-06 0.2583293914794922 0.2583398818969727 0 0.5833396911621094 0 Z" stroke="none" fill="#667085"/>
      </g>
      <path id="Vector-2" data-name="Vector" d="M7.367,3.683V7.95A3.683,3.683,0,0,1,0,7.95V3.683a3.683,3.683,0,1,1,7.367,0ZM4.442,5.2a2.863,2.863,0,0,0-1.5,0,.483.483,0,1,0,.25.933,1.822,1.822,0,0,1,.992,0,.644.644,0,0,0,.125.017.485.485,0,0,0,.133-.95Zm.483-1.642a3.633,3.633,0,0,0-2.483,0,.479.479,0,0,0-.292.617.492.492,0,0,0,.625.292,2.62,2.62,0,0,1,1.817,0,.577.577,0,0,0,.167.025.48.48,0,0,0,.167-.933Z" transform="translate(6.317 1.667)" fill="#667085"/>
      <path id="Vector-3" data-name="Vector" d="M0,0H20V20H0Z" fill="none" opacity="0"/>
    </g>
  </g>
</svg>
