<svg xmlns="http://www.w3.org/2000/svg" width="17.584" height="21.596" viewBox="0 0 17.584 21.596">
  <g id="Icon-Trash" transform="translate(219.5 220)">
    <path id="Fill-6" d="M-207.5-205.1h1.353v10.821H-207.5Z" transform="translate(-6.59 -8.182)" fill="#00003c"/>
    <path id="Fill-7" d="M-201.5-205.1h1.353v10.821H-201.5Z" transform="translate(-9.884 -8.182)" fill="#00003c"/>
    <path id="Fill-8" d="M-195.5-205.1h1.353v10.821H-195.5Z" transform="translate(-13.179 -8.182)" fill="#00003c"/>
    <path id="Fill-9" d="M-219.5-214.1h17.584v1.353H-219.5Z" transform="translate(0 -3.24)" fill="#00003c"/>
    <path id="Fill-10" d="M-200.727-216.664h-1.262v-1.353a.712.712,0,0,0-.721-.721h-2.705a.712.712,0,0,0-.721.721v1.353H-207.4v-1.353A2,2,0,0,1-205.416-220h2.705a2,2,0,0,1,1.984,1.984v1.353" transform="translate(-6.645)" fill="#00003c"/>
    <path id="Fill-11" d="M-205-194.4h-8.115a2.189,2.189,0,0,1-2.119-1.984L-216.5-212.61l1.353-.09,1.262,16.231a.817.817,0,0,0,.766.721H-205a.784.784,0,0,0,.766-.721l1.262-16.231,1.353.09-1.262,16.231A2.153,2.153,0,0,1-205-194.4" transform="translate(-1.647 -4.009)" fill="#00003c"/>
  </g>
</svg>
